<?xml version="1.0" encoding="UTF-8" standalone="no"?>
<!-- Created with Inkscape (http://www.inkscape.org/) -->

<svg
   xmlns:dc="http://purl.org/dc/elements/1.1/"
   xmlns:cc="http://creativecommons.org/ns#"
   xmlns:rdf="http://www.w3.org/1999/02/22-rdf-syntax-ns#"
   xmlns:svg="http://www.w3.org/2000/svg"
   xmlns="http://www.w3.org/2000/svg"
   xmlns:sodipodi="http://sodipodi.sourceforge.net/DTD/sodipodi-0.dtd"
   xmlns:inkscape="http://www.inkscape.org/namespaces/inkscape"
   width="63.750015mm"
   height="63.750004mm"
   viewBox="0 0 63.750015 63.750004"
   version="1.1"
   id="svg4868"
   inkscape:version="0.92.4 (5da689c313, 2019-01-14)"
   sodipodi:docname="rbox.svg">
  <defs
     id="defs4862" />
  <sodipodi:namedview
     id="base"
     pagecolor="#ffffff"
     bordercolor="#666666"
     borderopacity="1.0"
     inkscape:pageopacity="0.0"
     inkscape:pageshadow="2"
     inkscape:zoom="1.4"
     inkscape:cx="-18.29411"
     inkscape:cy="92.521753"
     inkscape:document-units="mm"
     inkscape:current-layer="layer1"
     showgrid="false"
     inkscape:window-width="1366"
     inkscape:window-height="715"
     inkscape:window-x="-8"
     inkscape:window-y="-8"
     inkscape:window-maximized="1" />
  <metadata
     id="metadata4865">
    <rdf:RDF>
      <cc:Work
         rdf:about="">
        <dc:format>image/svg+xml</dc:format>
        <dc:type
           rdf:resource="http://purl.org/dc/dcmitype/StillImage" />
        <dc:title />
      </cc:Work>
    </rdf:RDF>
  </metadata>
  <g
     inkscape:label="Layer 1"
     inkscape:groupmode="layer"
     id="layer1"
     transform="translate(25.827388,-118.47024)">
    <path
       inkscape:connector-curvature="0"
       id="path58"
       style="opacity:0.98999999;fill:#6c757d;fill-opacity:1;fill-rule:nonzero;stroke:none;stroke-width:0.04624541"
       d="m 29.204967,172.24199 c 2.92456,-3.0892 0.960055,-7.76137 2.605005,-12.07099 1.642176,-4.30683 6.228791,-6.4466 6.110405,-10.6887 -0.116998,-4.24393 -4.7864,-6.20196 -6.668586,-10.40845 -1.877566,-4.20186 -0.204868,-8.97115 -3.285274,-11.88738 -3.079021,-2.91531 -7.750731,-0.98225 -12.047393,-2.6272 -4.302209,-1.64727 -6.5159789,-6.20383 -10.7589938,-6.08682 -4.24209194,0.11601 -6.15295253,4.78732 -10.3603596,6.66488 -4.2101822,1.88081 -8.9905696,0.1799 -11.9114296,3.26539 -2.917161,3.08272 -0.955893,7.77015 -2.603616,12.07144 -1.650962,4.30777 -6.226019,6.48499 -6.109944,10.73495 0.115149,4.24256 4.809986,6.17699 6.689861,10.38302 1.878951,4.20556 0.180819,8.99196 3.262613,11.90957 3.085032,2.91948 7.7701542,0.96006 12.0728265,2.60686 4.30359775,1.64449 6.4914685,6.22648 10.7335592,6.10948 4.2499543,-0.11837 6.1492543,-4.82941 10.3608213,-6.71252 4.209721,-1.88265 8.991033,-0.17759 11.910505,-3.26353 v 0" />
    <path
       inkscape:connector-curvature="0"
       id="path60"
       style="opacity:0.98999999;fill:#154deb;fill-opacity:1;fill-rule:nonzero;stroke:none;stroke-width:0.04624541"
       d="m 27.785695,170.89947 c 2.745129,-2.89958 0.899938,-7.28411 2.444997,-11.3315 1.541821,-4.04093 5.846807,-6.05029 5.737666,-10.03387 -0.110063,-3.98265 -4.493666,-5.82275 -6.258391,-9.77027 -1.762412,-3.9438 -0.193305,-8.42036 -3.085494,-11.15809 -2.889875,-2.73634 -7.276715,-0.92306 -11.311164,-2.4672 -4.037686,-1.54551 -6.1145676,-5.82275 -10.0962978,-5.71408 -3.9849668,0.11012 -5.77790069,4.49552 -9.7277211,6.25839 -3.9507459,1.76334 -8.4397871,0.16649 -11.1798271,3.06284 -2.739579,2.89496 -0.899936,7.29475 -2.445458,11.33383 -1.549683,4.04277 -5.845419,6.08821 -5.736742,10.0764 0.110993,3.98404 4.516325,5.79917 6.280589,9.74669 1.764723,3.94797 0.16972,8.4421 3.063758,11.18306 2.894037,2.73773 7.2938256,0.89902 11.3324368,2.44407 4.04046082,1.54552 6.0932951,5.84357 10.0764122,5.7349 3.989592,-0.11051 5.770501,-4.53528 9.724484,-6.30048 3.951673,-1.76703 8.439789,-0.16833 11.180752,-3.06469 v 0" />
    <path
       inkscape:connector-curvature="0"
       id="path226"
       style="opacity:1;fill:#6c757d;fill-opacity:1;fill-rule:nonzero;stroke:none;stroke-width:0.04624541"
       d="m 29.778873,150.2768 c 0,13.10642 -10.624881,23.7313 -23.7308313,23.7313 -13.1064115,0 -23.7312947,-10.62488 -23.7312947,-23.7313 0,-13.10641 10.6248832,-23.73129 23.7312947,-23.73129 13.1059503,0 23.7308313,10.62488 23.7308313,23.73129" />
    <path
       inkscape:connector-curvature="0"
       id="path228"
       style="opacity:0.98999999;fill:#0d6efd;fill-opacity:1;fill-rule:nonzero;stroke:none;stroke-width:0.04624541"
       d="m 26.71419,150.2768 c 0,11.41383 -9.25278,20.66661 -20.6661483,20.66661 -11.4142918,0 -20.6666107,-9.25278 -20.6666107,-20.66661 0,-11.41336 9.2523189,-20.6666 20.6666107,-20.6666 11.4133683,0 20.6661483,9.25324 20.6661483,20.6666" />
  </g>
</svg>
